<svg width="156" height="16" viewBox="0 0 156 16" fill="none" xmlns="http://www.w3.org/2000/svg">
<path d="M7.45322 2.19486L14.9064 6.80174V8.55453L7.45322 13.1769L0 8.55453V6.81726L7.45322 2.19486ZM7.45322 10.7339L12.7969 7.67814L7.45322 4.56035L2.1173 7.67814L7.45322 10.7339Z" fill="black"/>
<path d="M23.9125 3.04799L24.9828 4.73873L19.9493 7.67814L24.9828 10.5633L23.8737 12.3083L17.832 8.55453V6.81726L23.9125 3.04799Z" fill="black"/>
<path d="M41.2809 8.51575V12.5487H38.737V8.53126L35.2315 1.79932H38.0157L40.0555 6.42947L42.1108 1.79932H44.7865L41.2809 8.51575Z" fill="black"/>
<path d="M48.1929 4.31217V9.95056C48.1929 10.3487 48.2653 10.6227 48.4101 10.7727C48.56 10.9226 48.7668 10.9976 49.0305 10.9976C49.2839 10.9976 49.5372 10.9174 49.7906 10.7571C50.0439 10.5969 50.2559 10.3797 50.4266 10.1057V4.31217H52.8773V12.5487H50.7368L50.6282 11.587C50.349 11.9903 49.9819 12.2954 49.5269 12.5022C49.0719 12.709 48.5962 12.8124 48.0998 12.8124C47.3036 12.8124 46.7116 12.5823 46.3238 12.1222C45.936 11.6568 45.7421 11.0338 45.7421 10.253V4.31217H48.1929Z" fill="black"/>
<path d="M62.8296 4.31217L60.0841 12.5487C59.7222 13.6397 59.1741 14.4695 58.4399 15.0383C57.7108 15.607 56.7207 15.9276 55.4694 16L55.1902 14.2705C55.7331 14.2033 56.17 14.1024 56.501 13.968C56.837 13.8336 57.1059 13.65 57.3075 13.4174C57.5144 13.1899 57.6927 12.9003 57.8427 12.5487H57.0051L54.3914 4.31217H56.9818L58.5795 10.9821L60.3168 4.31217H62.8296Z" fill="black"/>
<path d="M66.7945 4.31217V9.95056C66.7945 10.3487 66.8669 10.6227 67.0116 10.7727C67.1616 10.9226 67.3684 10.9976 67.6321 10.9976C67.8854 10.9976 68.1388 10.9174 68.3921 10.7571C68.6455 10.5969 68.8575 10.3797 69.0281 10.1057V4.31217H71.4789V12.5487H69.3383L69.2297 11.587C68.9505 11.9903 68.5834 12.2954 68.1284 12.5022C67.6734 12.709 67.1978 12.8124 66.7014 12.8124C65.9051 12.8124 65.3131 12.5823 64.9253 12.1222C64.5376 11.6568 64.3437 11.0338 64.3437 10.253V4.31217H66.7945Z" fill="black"/>
<path d="M81.4312 4.31217L78.6856 12.5487C78.3237 13.6397 77.7756 14.4695 77.0414 15.0383C76.3124 15.607 75.3222 15.9276 74.071 16L73.7918 14.2705C74.3347 14.2033 74.7716 14.1024 75.1025 13.968C75.4386 13.8336 75.7075 13.65 75.9091 13.4174C76.1159 13.1899 76.2943 12.9003 76.4442 12.5487H75.6066L72.993 4.31217H75.5834L77.181 10.9821L78.9183 4.31217H81.4312Z" fill="black"/>
<path d="M85.396 4.31217V9.95056C85.396 10.3487 85.4684 10.6227 85.6132 10.7727C85.7631 10.9226 85.9699 10.9976 86.2336 10.9976C86.487 10.9976 86.7403 10.9174 86.9937 10.7571C87.247 10.5969 87.459 10.3797 87.6296 10.1057V4.31217H90.0804V12.5487H87.9399L87.8313 11.587C87.5521 11.9903 87.185 12.2954 86.73 12.5022C86.275 12.709 85.7993 12.8124 85.3029 12.8124C84.5067 12.8124 83.9147 12.5823 83.5269 12.1222C83.1391 11.6568 82.9452 11.0338 82.9452 10.253V4.31217H85.396Z" fill="black"/>
<path d="M109.372 7.11973C109.372 8.2107 109.227 9.11036 108.938 9.81871C108.654 10.5271 108.266 11.0803 107.775 11.4784C107.283 11.8714 106.725 12.148 106.099 12.3083C105.479 12.4686 104.835 12.5487 104.168 12.5487H101.268V1.79932H103.982C104.67 1.79932 105.334 1.87171 105.975 2.01648C106.622 2.15608 107.198 2.41719 107.705 2.79981C108.217 3.17725 108.623 3.71498 108.922 4.41299C109.222 5.10583 109.372 6.00808 109.372 7.11973ZM106.735 7.11973C106.735 6.15285 106.629 5.42123 106.417 4.92487C106.211 4.4285 105.926 4.09242 105.564 3.91663C105.207 3.73566 104.804 3.64518 104.354 3.64518H103.811V10.7106H104.354C104.825 10.7106 105.238 10.6098 105.595 10.4081C105.952 10.2013 106.231 9.83681 106.433 9.31459C106.634 8.79237 106.735 8.06075 106.735 7.11973Z" fill="black"/>
<path d="M112.973 9.14396C113.055 9.81612 113.275 10.2996 113.632 10.5943C113.989 10.8838 114.428 11.0286 114.95 11.0286C115.328 11.0286 115.692 10.9666 116.044 10.8425C116.395 10.7184 116.734 10.5529 117.06 10.3461L118.045 11.6801C117.657 12.011 117.187 12.2824 116.633 12.4944C116.085 12.7064 115.46 12.8124 114.756 12.8124C113.815 12.8124 113.027 12.6263 112.391 12.254C111.755 11.8766 111.277 11.3595 110.956 10.7029C110.636 10.0462 110.475 9.29132 110.475 8.4382C110.475 7.62643 110.63 6.88964 110.941 6.22782C111.251 5.56083 111.703 5.03086 112.298 4.63791C112.898 4.23978 113.629 4.04072 114.493 4.04072C115.279 4.04072 115.959 4.20876 116.532 4.54484C117.112 4.88092 117.559 5.36436 117.874 5.99515C118.195 6.62595 118.355 7.38342 118.355 8.26757C118.355 8.40717 118.35 8.55712 118.34 8.7174C118.334 8.87769 118.324 9.01987 118.309 9.14396H112.973ZM114.493 5.68492C114.053 5.68492 113.699 5.84262 113.43 6.15802C113.161 6.47342 112.998 6.97754 112.942 7.67038H115.966C115.961 7.07061 115.845 6.58976 115.617 6.22782C115.39 5.86589 115.015 5.68492 114.493 5.68492Z" fill="black"/>
<path d="M123.452 11.0596C123.861 11.0596 124.189 10.995 124.437 10.8657C124.691 10.7365 124.817 10.5426 124.817 10.2841C124.817 10.1083 124.768 9.9609 124.67 9.84198C124.572 9.72306 124.383 9.60931 124.104 9.50073C123.825 9.39215 123.411 9.26289 122.863 9.11294C122.108 8.91129 121.493 8.62175 121.017 8.2443C120.546 7.86686 120.311 7.31362 120.311 6.58458C120.311 5.85038 120.616 5.24285 121.226 4.762C121.842 4.28114 122.728 4.04072 123.887 4.04072C124.621 4.04072 125.259 4.13637 125.802 4.32768C126.35 4.51381 126.823 4.75166 127.221 5.0412L126.244 6.48376C125.903 6.27177 125.536 6.10373 125.143 5.97964C124.75 5.85038 124.354 5.78575 123.956 5.78575C123.17 5.78575 122.777 5.99774 122.777 6.42172C122.777 6.56132 122.827 6.68282 122.925 6.78623C123.028 6.88447 123.22 6.98788 123.499 7.09646C123.778 7.19987 124.186 7.32913 124.724 7.48425C125.257 7.63419 125.719 7.8074 126.112 8.00388C126.511 8.20035 126.818 8.46405 127.035 8.79496C127.253 9.1207 127.361 9.55243 127.361 10.0902C127.361 10.6899 127.183 11.1941 126.826 11.6025C126.469 12.0058 125.996 12.3083 125.407 12.5099C124.817 12.7116 124.171 12.8124 123.468 12.8124C122.671 12.8124 121.968 12.6987 121.358 12.4712C120.748 12.2437 120.228 11.9438 119.799 11.5715L121.032 10.191C121.353 10.4392 121.715 10.646 122.118 10.8114C122.527 10.9769 122.971 11.0596 123.452 11.0596Z" fill="black"/>
<path d="M133.001 0C133.425 0 133.772 0.131847 134.04 0.39554C134.309 0.659234 134.444 0.987558 134.444 1.38051C134.444 1.77347 134.309 2.10438 134.04 2.37324C133.772 2.63694 133.425 2.76878 133.001 2.76878C132.572 2.76878 132.22 2.63694 131.946 2.37324C131.678 2.10438 131.543 1.77347 131.543 1.38051C131.543 0.987558 131.678 0.659234 131.946 0.39554C132.22 0.131847 132.572 0 133.001 0ZM134.483 4.31217V10.8735H136.577V12.5487H129.697V10.8735H132.032V5.9874H129.775V4.31217H134.483Z" fill="black"/>
<path d="M146.063 2.9937L146.637 4.79302C146.348 4.90677 146.009 4.9895 145.621 5.0412C145.234 5.09291 144.781 5.11876 144.264 5.11876C144.781 5.34109 145.174 5.61771 145.443 5.94862C145.717 6.27436 145.854 6.70351 145.854 7.23606C145.854 7.76862 145.712 8.2443 145.427 8.66311C145.143 9.07675 144.74 9.40249 144.218 9.64033C143.695 9.87817 143.078 9.99709 142.364 9.99709C142.023 9.99709 141.705 9.96607 141.41 9.90402C141.229 9.99709 141.139 10.1548 141.139 10.3771C141.139 10.5064 141.19 10.6227 141.294 10.7261C141.402 10.8295 141.653 10.8812 142.046 10.8812H143.396C144.352 10.8812 145.115 11.1062 145.683 11.556C146.252 12.0058 146.537 12.5746 146.537 13.2622C146.537 14.105 146.167 14.7694 145.427 15.2555C144.688 15.7415 143.589 15.9845 142.131 15.9845C141.077 15.9845 140.26 15.8759 139.681 15.6587C139.107 15.4468 138.706 15.1417 138.478 14.7436C138.256 14.3506 138.145 13.8827 138.145 13.3398H140.316C140.316 13.5776 140.363 13.7715 140.456 13.9215C140.554 14.0766 140.738 14.1903 141.007 14.2627C141.281 14.3351 141.676 14.3713 142.193 14.3713C142.716 14.3713 143.114 14.3299 143.388 14.2472C143.662 14.1645 143.848 14.0507 143.946 13.906C144.05 13.7664 144.101 13.6087 144.101 13.4329C144.101 13.1899 144.006 12.9934 143.814 12.8434C143.623 12.6935 143.321 12.6185 142.907 12.6185H141.596C140.707 12.6185 140.061 12.4556 139.657 12.1299C139.254 11.799 139.052 11.4138 139.052 10.9743C139.052 10.6693 139.132 10.3797 139.293 10.1057C139.458 9.83164 139.688 9.60155 139.983 9.41541C139.456 9.13621 139.078 8.80788 138.851 8.43044C138.623 8.04783 138.509 7.59024 138.509 7.05768C138.509 6.43723 138.667 5.90467 138.983 5.46001C139.298 5.01018 139.732 4.66376 140.285 4.42075C140.844 4.17773 141.48 4.05623 142.193 4.05623C142.809 4.06657 143.344 4.02521 143.799 3.93214C144.254 3.8339 144.662 3.70205 145.024 3.5366C145.386 3.36597 145.733 3.18501 146.063 2.9937ZM142.255 5.64615C141.868 5.64615 141.56 5.77024 141.332 6.01842C141.105 6.26143 140.991 6.59751 140.991 7.02666C140.991 7.48166 141.108 7.83067 141.34 8.07368C141.573 8.31669 141.878 8.4382 142.255 8.4382C143.093 8.4382 143.512 7.95734 143.512 6.99564C143.512 6.09598 143.093 5.64615 142.255 5.64615Z" fill="black"/>
<path d="M148.051 12.5487V4.31217H150.191L150.362 5.26612C150.729 4.85248 151.117 4.54484 151.525 4.34319C151.934 4.14154 152.399 4.04072 152.921 4.04072C153.624 4.04072 154.178 4.25529 154.581 4.68444C154.984 5.11359 155.186 5.71853 155.186 6.49927V12.5487H152.735V7.20504C152.735 6.69834 152.678 6.34674 152.564 6.15027C152.456 5.94862 152.249 5.84779 151.944 5.84779C151.685 5.84779 151.437 5.93052 151.199 6.09598C150.967 6.26143 150.734 6.49152 150.501 6.78623V12.5487H148.051Z" fill="black"/>
</svg>
