<svg width="194" height="20" viewBox="0 0 194 20" fill="none" xmlns="http://www.w3.org/2000/svg">
<path d="M9.31653 2.74358L18.6331 8.50218V10.6932L9.31653 16.4712L0 10.6932V8.52157L9.31653 2.74358ZM9.31653 13.4174L15.9961 9.59767L9.31653 5.70044L2.64663 9.59767L9.31653 13.4174Z" fill="black"/>
<path d="M29.8906 3.80999L31.2285 5.92341L24.9367 9.59767L31.2285 13.2041L29.8422 15.3854L22.29 10.6932V8.52157L29.8906 3.80999Z" fill="black"/>
<path d="M51.6011 10.6447V15.6859H48.4213V10.6641L44.0393 2.24915H47.5197L50.0694 8.03684L52.6384 2.24915H55.9831L51.6011 10.6447Z" fill="black"/>
<path d="M60.2411 5.39021V12.4382C60.2411 12.9359 60.3316 13.2784 60.5126 13.4658C60.7 13.6533 60.9585 13.747 61.2882 13.747C61.6049 13.747 61.9215 13.6468 62.2382 13.4464C62.5549 13.2461 62.8199 12.9746 63.0332 12.6321V5.39021H66.0967V15.6859H63.421L63.2852 14.4838C62.9362 14.9879 62.4774 15.3692 61.9086 15.6277C61.3399 15.8863 60.7453 16.0155 60.1248 16.0155C59.1295 16.0155 58.3895 15.7279 57.9047 15.1527C57.42 14.571 57.1776 13.7922 57.1776 12.8163V5.39021H60.2411Z" fill="black"/>
<path d="M78.537 5.39021L75.1051 15.6859C74.6527 17.0496 73.9676 18.0869 73.0499 18.7979C72.1386 19.5088 70.9009 19.9095 69.3368 20L68.9878 17.8381C69.6664 17.7541 70.2126 17.628 70.6262 17.46C71.0463 17.292 71.3824 17.0625 71.6344 16.7717C71.893 16.4873 72.1159 16.1254 72.3034 15.6859H71.2563L67.9893 5.39021H71.2273L73.2243 13.7276L75.3959 5.39021H78.537Z" fill="black"/>
<path d="M83.4931 5.39021V12.4382C83.4931 12.9359 83.5836 13.2784 83.7645 13.4658C83.952 13.6533 84.2105 13.747 84.5401 13.747C84.8568 13.747 85.1735 13.6468 85.4902 13.4464C85.8069 13.2461 86.0718 12.9746 86.2851 12.6321V5.39021H89.3486V15.6859H86.6729L86.5372 14.4838C86.1882 14.9879 85.7293 15.3692 85.1605 15.6277C84.5918 15.8863 83.9972 16.0155 83.3767 16.0155C82.3814 16.0155 81.6414 15.7279 81.1567 15.1527C80.6719 14.571 80.4296 13.7922 80.4296 12.8163V5.39021H83.4931Z" fill="black"/>
<path d="M101.789 5.39021L98.357 15.6859C97.9046 17.0496 97.2195 18.0869 96.3018 18.7979C95.3905 19.5088 94.1528 19.9095 92.5887 20L92.2397 17.8381C92.9184 17.7541 93.4645 17.628 93.8781 17.46C94.2982 17.292 94.6343 17.0625 94.8864 16.7717C95.1449 16.4873 95.3679 16.1254 95.5553 15.6859H94.5083L91.2412 5.39021H94.4792L96.4763 13.7276L98.6479 5.39021H101.789Z" fill="black"/>
<path d="M106.745 5.39021V12.4382C106.745 12.9359 106.835 13.2784 107.016 13.4658C107.204 13.6533 107.462 13.747 107.792 13.747C108.109 13.747 108.425 13.6468 108.742 13.4464C109.059 13.2461 109.324 12.9746 109.537 12.6321V5.39021H112.601V15.6859H109.925L109.789 14.4838C109.44 14.9879 108.981 15.3692 108.412 15.6277C107.844 15.8863 107.249 16.0155 106.629 16.0155C105.633 16.0155 104.893 15.7279 104.409 15.1527C103.924 14.571 103.682 13.7922 103.682 12.8163V5.39021H106.745Z" fill="black"/>
<path d="M136.715 8.89966C136.715 10.2634 136.534 11.3879 136.172 12.2734C135.817 13.1588 135.332 13.8504 134.718 14.348C134.104 14.8392 133.406 15.185 132.624 15.3854C131.849 15.5857 131.044 15.6859 130.21 15.6859H126.584V2.24915H129.978C130.837 2.24915 131.668 2.33963 132.469 2.5206C133.277 2.6951 133.998 3.02149 134.631 3.49976C135.271 3.97156 135.778 4.64372 136.153 5.51624C136.528 6.38229 136.715 7.5101 136.715 8.89966ZM133.419 8.89966C133.419 7.69106 133.287 6.77654 133.022 6.15608C132.763 5.53563 132.408 5.11553 131.955 4.89578C131.509 4.66958 131.005 4.55647 130.443 4.55647H129.764V13.3883H130.443C131.031 13.3883 131.548 13.2622 131.994 13.0102C132.44 12.7517 132.789 12.296 133.041 11.6432C133.293 10.9905 133.419 10.0759 133.419 8.89966Z" fill="black"/>
<path d="M141.216 11.43C141.319 12.2702 141.594 12.8745 142.04 13.2428C142.486 13.6048 143.035 13.7857 143.688 13.7857C144.16 13.7857 144.615 13.7082 145.055 13.5531C145.494 13.398 145.918 13.1911 146.325 12.9326L147.556 14.6001C147.071 15.0137 146.483 15.353 145.792 15.618C145.107 15.883 144.324 16.0155 143.445 16.0155C142.269 16.0155 141.284 15.7828 140.489 15.3175C139.694 14.8457 139.096 14.1994 138.695 13.3786C138.294 12.5578 138.094 11.6142 138.094 10.5477C138.094 9.53304 138.288 8.61205 138.676 7.78478C139.064 6.95104 139.629 6.28858 140.372 5.79738C141.122 5.29973 142.037 5.0509 143.116 5.0509C144.098 5.0509 144.948 5.26095 145.666 5.68105C146.389 6.10115 146.948 6.70544 147.343 7.49394C147.743 8.28244 147.944 9.22928 147.944 10.3345C147.944 10.509 147.937 10.6964 147.924 10.8968C147.918 11.0971 147.905 11.2748 147.886 11.43H141.216ZM143.116 7.10616C142.567 7.10616 142.124 7.30328 141.788 7.69753C141.452 8.09177 141.248 8.72193 141.177 9.58798H144.958C144.951 8.83826 144.806 8.23719 144.522 7.78478C144.237 7.33236 143.769 7.10616 143.116 7.10616Z" fill="black"/>
<path d="M154.315 13.8245C154.826 13.8245 155.236 13.7437 155.546 13.5822C155.863 13.4206 156.022 13.1782 156.022 12.8551C156.022 12.6353 155.96 12.4511 155.837 12.3025C155.715 12.1538 155.479 12.0116 155.13 11.8759C154.781 11.7402 154.264 11.5786 153.578 11.3912C152.635 11.1391 151.866 10.7772 151.271 10.3054C150.683 9.83358 150.389 9.14203 150.389 8.23073C150.389 7.31297 150.77 6.55356 151.533 5.9525C152.302 5.35143 153.41 5.0509 154.858 5.0509C155.776 5.0509 156.574 5.17046 157.253 5.4096C157.938 5.64227 158.529 5.93957 159.027 6.3015L157.805 8.1047C157.379 7.83972 156.92 7.62967 156.429 7.47455C155.938 7.31297 155.443 7.23219 154.945 7.23219C153.963 7.23219 153.472 7.49717 153.472 8.02714C153.472 8.20165 153.533 8.35353 153.656 8.48279C153.785 8.60559 154.024 8.73485 154.373 8.87058C154.722 8.99984 155.233 9.16142 155.905 9.35531C156.571 9.54274 157.149 9.75925 157.641 10.0048C158.138 10.2504 158.523 10.5801 158.794 10.9937C159.066 11.4009 159.201 11.9405 159.201 12.6127C159.201 13.3624 158.978 13.9926 158.532 14.5032C158.086 15.0073 157.495 15.3854 156.758 15.6374C156.022 15.8895 155.214 16.0155 154.335 16.0155C153.339 16.0155 152.46 15.8733 151.698 15.5889C150.935 15.3046 150.286 14.9297 149.749 14.4644L151.291 12.7387C151.691 13.049 152.144 13.3075 152.648 13.5143C153.158 13.7211 153.714 13.8245 154.315 13.8245Z" fill="black"/>
<path d="M166.251 0C166.781 0 167.214 0.164809 167.551 0.494426C167.887 0.824043 168.055 1.23445 168.055 1.72564C168.055 2.21684 167.887 2.63047 167.551 2.96655C167.214 3.29617 166.781 3.46098 166.251 3.46098C165.715 3.46098 165.276 3.29617 164.933 2.96655C164.597 2.63047 164.429 2.21684 164.429 1.72564C164.429 1.23445 164.597 0.824043 164.933 0.494426C165.276 0.164809 165.715 0 166.251 0ZM168.103 5.39021V13.5919H170.721V15.6859H162.122V13.5919H165.04V7.48425H162.219V5.39021H168.103Z" fill="black"/>
<path d="M182.579 3.74212L183.297 5.99127C182.935 6.13346 182.511 6.23687 182.027 6.3015C181.542 6.36613 180.976 6.39845 180.33 6.39845C180.976 6.67636 181.468 7.02214 181.804 7.43577C182.146 7.84295 182.318 8.37938 182.318 9.04508C182.318 9.71078 182.14 10.3054 181.784 10.8289C181.429 11.3459 180.925 11.7531 180.272 12.0504C179.619 12.3477 178.847 12.4964 177.955 12.4964C177.528 12.4964 177.131 12.4576 176.763 12.38C176.536 12.4964 176.423 12.6935 176.423 12.9714C176.423 13.133 176.488 13.2784 176.617 13.4077C176.753 13.5369 177.066 13.6016 177.558 13.6016H179.244C180.44 13.6016 181.393 13.8827 182.104 14.445C182.815 15.0073 183.171 15.7182 183.171 16.5778C183.171 17.6313 182.709 18.4618 181.784 19.0693C180.86 19.6768 179.487 19.9806 177.664 19.9806C176.346 19.9806 175.325 19.8449 174.601 19.5734C173.883 19.3085 173.382 18.9271 173.098 18.4295C172.82 17.9383 172.681 17.3534 172.681 16.6747H175.396C175.396 16.972 175.454 17.2144 175.57 17.4018C175.693 17.5957 175.922 17.7379 176.258 17.8284C176.601 17.9189 177.095 17.9641 177.742 17.9641C178.394 17.9641 178.892 17.9124 179.235 17.809C179.577 17.7056 179.81 17.5634 179.933 17.3825C180.062 17.2079 180.127 17.0108 180.127 16.7911C180.127 16.4873 180.007 16.2417 179.768 16.0543C179.529 15.8669 179.151 15.7731 178.634 15.7731H176.995C175.884 15.7731 175.076 15.5696 174.572 15.1624C174.067 14.7487 173.815 14.2672 173.815 13.7179C173.815 13.3366 173.916 12.9746 174.116 12.6321C174.323 12.2895 174.61 12.0019 174.979 11.7693C174.32 11.4203 173.848 11.0099 173.563 10.5381C173.279 10.0598 173.137 9.4878 173.137 8.8221C173.137 8.04653 173.334 7.38084 173.728 6.82501C174.122 6.26272 174.665 5.8297 175.357 5.52593C176.055 5.22217 176.85 5.07029 177.742 5.07029C178.511 5.08321 179.18 5.03151 179.749 4.91517C180.317 4.79237 180.828 4.62756 181.28 4.42075C181.733 4.20746 182.166 3.98126 182.579 3.74212ZM177.819 7.05768C177.335 7.05768 176.95 7.2128 176.666 7.52302C176.381 7.82679 176.239 8.24689 176.239 8.78333C176.239 9.35208 176.384 9.78833 176.675 10.0921C176.966 10.3959 177.347 10.5477 177.819 10.5477C178.866 10.5477 179.39 9.94668 179.39 8.74455C179.39 7.61997 178.866 7.05768 177.819 7.05768Z" fill="black"/>
<path d="M185.063 15.6859V5.39021H187.739L187.952 6.58265C188.411 6.0656 188.896 5.68105 189.406 5.42899C189.917 5.17693 190.499 5.0509 191.151 5.0509C192.03 5.0509 192.722 5.31911 193.226 5.85555C193.73 6.39199 193.982 7.14817 193.982 8.12409V15.6859H190.919V9.0063C190.919 8.37292 190.848 7.93343 190.706 7.68783C190.57 7.43577 190.311 7.30974 189.93 7.30974C189.607 7.30974 189.297 7.41315 188.999 7.61997C188.708 7.82679 188.418 8.1144 188.127 8.48279V15.6859H185.063Z" fill="black"/>
</svg>
